<svg width="15" height="17" viewBox="0 0 15 17" fill="none" xmlns="http://www.w3.org/2000/svg">
<path fill-rule="evenodd" clip-rule="evenodd" d="M13.2934 2.54867H9.99115C9.65934 1.63225 8.79031 0.968628 7.76328 0.968628C6.73625 0.968628 5.86723 1.63225 5.53542 2.54867H2.23312C1.3641 2.54867 0.653076 3.25969 0.653076 4.12872V15.189C0.653076 16.0581 1.3641 16.7691 2.23312 16.7691H13.2934C14.1625 16.7691 14.8735 16.0581 14.8735 15.189V4.12872C14.8735 3.25969 14.1625 2.54867 13.2934 2.54867ZM7.76326 2.54867C8.19777 2.54867 8.55328 2.90418 8.55328 3.3387C8.55328 3.77321 8.19777 4.12872 7.76326 4.12872C7.32875 4.12872 6.97324 3.77321 6.97324 3.3387C6.97324 2.90418 7.32875 2.54867 7.76326 2.54867ZM3.81309 13.609H9.34325V12.0289H3.81309V13.609ZM11.7133 10.4489H3.81309V8.86885H11.7133V10.4489ZM3.81309 7.28881H11.7133V5.70876H3.81309V7.28881Z" fill="white"/>
</svg>
