<svg width="30" height="30" viewBox="0 0 30 30" fill="none" xmlns="http://www.w3.org/2000/svg">
<path d="M18.7194 21.0146C20.9847 20.7459 23.1692 20.2133 25.2411 19.4484C23.5231 17.5414 22.4774 15.0168 22.4774 12.248V11.41C22.4776 11.3904 22.4777 11.3708 22.4777 11.3512C22.4777 7.38897 19.2656 4.17694 15.3034 4.17694C11.3412 4.17694 8.12915 7.38897 8.12915 11.3512L8.12891 12.248C8.12891 15.0168 7.08323 17.5414 5.36523 19.4484C7.43731 20.2133 9.62191 20.746 11.8874 21.0146M18.7194 21.0146C17.5992 21.1475 16.4591 21.2158 15.3032 21.2158C14.1474 21.2158 13.0075 21.1475 11.8874 21.0146M18.7194 21.0146C18.8305 21.3606 18.8905 21.7296 18.8905 22.1126C18.8905 24.0937 17.2845 25.6997 15.3034 25.6997C13.3223 25.6997 11.7163 24.0937 11.7163 22.1126C11.7163 21.7296 11.7763 21.3607 11.8874 21.0146" stroke="#F9F0F6" stroke-width="1.79357" stroke-linecap="round" stroke-linejoin="round"/>
</svg>
