<svg width="20" height="20" viewBox="0 0 20 20" fill="none" xmlns="http://www.w3.org/2000/svg">
<g clip-path="url(#clip0_47_325)">
<path d="M16.0914 13.1112C15.1196 13.1112 14.1795 12.9532 13.3026 12.6688C13.0261 12.574 12.718 12.6451 12.5047 12.8584L11.2643 14.4148C9.02856 13.3482 6.935 11.3337 5.82107 9.01891L7.36161 7.70748C7.57492 7.48627 7.63812 7.17816 7.55122 6.90165C7.25891 6.02473 7.10881 5.0846 7.10881 4.11287C7.10881 3.68626 6.75329 3.33075 6.32668 3.33075H3.5932C3.16659 3.33075 2.65308 3.52036 2.65308 4.11287C2.65308 11.4522 8.75995 17.5512 16.0914 17.5512C16.6523 17.5512 16.8735 17.0534 16.8735 16.6189V13.8934C16.8735 13.4667 16.518 13.1112 16.0914 13.1112Z" fill="white"/>
</g>
<defs>
<clipPath id="clip0_47_325">
<rect width="18.9605" height="18.9605" fill="white" transform="translate(0.282959 0.960693)"/>
</clipPath>
</defs>
</svg>
