<svg width="30" height="30" viewBox="0 0 30 30" fill="none" xmlns="http://www.w3.org/2000/svg">
<path d="M22.4773 11.078V22.9432C22.4773 24.3147 21.353 25.4266 19.9663 25.4266H8.2483C6.86151 25.4266 5.7373 24.3147 5.7373 22.9432V8.32642C5.7373 7.1035 6.63689 6.05621 7.86515 5.91523C8.57804 5.83341 9.29519 5.76543 10.0163 5.71157M10.0163 5.71157C9.95507 5.92637 9.92229 6.15299 9.92229 6.38718V6.38718C9.92229 6.84436 10.2929 7.21498 10.7501 7.21498H17.4645C17.9216 7.21498 18.2923 6.84436 18.2923 6.38718V6.38718C18.2923 6.15299 18.2595 5.92637 18.1982 5.71157C17.9007 4.66835 16.9313 3.90378 15.7813 3.90378H12.4333C11.2833 3.90378 10.3139 4.66835 10.0163 5.71157Z" stroke="#F9F0F6" stroke-width="1.79357" stroke-linecap="round" stroke-linejoin="round"/>
<path d="M27.2601 2.70807L22.4773 2.70807M27.2601 2.70807V7.49091M27.2601 2.70807L15.9009 13.1207L14.4062 14.4908" stroke="#F9F0F6" stroke-width="1.79357" stroke-linecap="round" stroke-linejoin="round"/>
</svg>
